<?xml version="1.0" encoding="utf-8"?>
<!-- Generator: Adobe Illustrator 16.0.3, SVG Export Plug-In . SVG Version: 6.00 Build 0)  -->
<!DOCTYPE svg PUBLIC "-//W3C//DTD SVG 1.1//EN" "http://www.w3.org/Graphics/SVG/1.1/DTD/svg11.dtd">
<svg version="1.1" id="Layer_1" xmlns="http://www.w3.org/2000/svg" xmlns:xlink="http://www.w3.org/1999/xlink" x="0px" y="0px"
	 width="276px" height="40px" viewBox="0 0 276 40" enable-background="new 0 0 276 40" xml:space="preserve">
<g>
	<g>
		<g>
			<path fill="#FFFFFF" d="M77.202,30.332h-5.83v4.915h6.899v3.106H67.628V19.813h10.62v3.12h-6.876v4.381h5.83V30.332z"/>
			<path fill="#FFFFFF" d="M85.836,19.813l3.502,13.409l3.488-13.409h4.891v18.541H93.96v-5.018l0.344-7.729l-3.703,12.746h-2.548
				l-3.706-12.746l0.343,7.729v5.018h-3.742V19.813H85.836z"/>
			<path fill="#FFFFFF" d="M104.987,31.834v6.52h-3.745V19.813h6.316c0.942,0,1.785,0.155,2.526,0.46
				c0.745,0.306,1.375,0.732,1.894,1.281c0.517,0.546,0.913,1.196,1.189,1.945c0.275,0.753,0.414,1.57,0.414,2.451
				c0,0.9-0.139,1.715-0.414,2.438c-0.276,0.727-0.673,1.345-1.189,1.854c-0.519,0.511-1.151,0.902-1.897,1.178
				c-0.747,0.277-1.588,0.414-2.522,0.414H104.987z M104.987,28.714h2.571c0.391,0,0.729-0.067,1.012-0.203
				c0.285-0.137,0.518-0.324,0.701-0.566s0.316-0.53,0.4-0.866c0.086-0.335,0.127-0.703,0.127-1.103
				c0-0.398-0.041-0.778-0.127-1.145c-0.084-0.366-0.217-0.688-0.4-0.968c-0.184-0.28-0.416-0.505-0.701-0.675
				c-0.283-0.171-0.621-0.256-1.012-0.256h-2.571V28.714z"/>
			<path fill="#FFFFFF" d="M120.344,35.247h6.57v3.106h-10.315V19.813h3.745V35.247z"/>
			<path fill="#FFFFFF" d="M141.836,30.753c0,1.298-0.161,2.44-0.484,3.424c-0.321,0.985-0.773,1.805-1.355,2.458
				c-0.583,0.652-1.284,1.146-2.101,1.479c-0.818,0.33-1.726,0.494-2.72,0.494c-0.992,0-1.899-0.164-2.726-0.494
				c-0.822-0.332-1.53-0.826-2.117-1.479c-0.592-0.653-1.05-1.473-1.375-2.458c-0.33-0.983-0.491-2.126-0.491-3.424v-3.081
				c0-1.335,0.161-2.507,0.483-3.523c0.323-1.013,0.775-1.86,1.362-2.539c0.585-0.679,1.289-1.191,2.113-1.534
				c0.824-0.344,1.732-0.517,2.725-0.517c0.994,0,1.899,0.172,2.721,0.517c0.817,0.343,1.523,0.855,2.113,1.534
				c0.587,0.679,1.046,1.526,1.367,2.539c0.323,1.017,0.484,2.188,0.484,3.523V30.753z M138.079,27.646
				c0-0.883-0.063-1.637-0.189-2.261c-0.129-0.625-0.314-1.136-0.562-1.535c-0.245-0.398-0.551-0.691-0.916-0.878
				c-0.364-0.188-0.784-0.28-1.262-0.28c-0.482,0-0.907,0.093-1.272,0.28c-0.365,0.187-0.669,0.479-0.919,0.878
				c-0.242,0.399-0.433,0.91-0.56,1.535c-0.127,0.624-0.189,1.378-0.189,2.261v3.107c0,0.84,0.063,1.561,0.189,2.156
				c0.127,0.599,0.317,1.09,0.57,1.472c0.247,0.384,0.559,0.663,0.927,0.84c0.37,0.179,0.795,0.267,1.279,0.267
				c0.476,0,0.895-0.088,1.255-0.267c0.361-0.177,0.665-0.456,0.91-0.84c0.246-0.382,0.43-0.873,0.555-1.472
				c0.124-0.596,0.184-1.316,0.184-2.156V27.646z"/>
			<path fill="#FFFFFF" d="M150.087,28.141l2.788-8.328h4.074l-4.967,11.818v6.723h-3.794v-6.723l-4.979-11.818h4.076
				L150.087,28.141z"/>
			<path fill="#FFFFFF" d="M164.055,19.813l3.502,13.409l3.488-13.409h4.891v18.541h-3.756v-5.018l0.343-7.729l-3.704,12.746h-2.549
				l-3.705-12.746l0.343,7.729v5.018h-3.741V19.813H164.055z"/>
			<path fill="#FFFFFF" d="M189.037,30.332h-5.833v4.915h6.901v3.106h-10.644V19.813h10.619v3.12h-6.877v4.381h5.833V30.332z"/>
			<path fill="#FFFFFF" d="M205.744,38.354h-3.745l-5.474-12.16v12.16h-3.743V19.813h3.743l5.486,12.176V19.813h3.732V38.354z"/>
			<path fill="#FFFFFF" d="M220.907,22.933h-4.584v15.421h-3.758V22.933h-4.506v-3.12h12.848V22.933z"/>
			<path fill="#FFFFFF" d="M238.912,30.79h-5.82v7.563h-3.742V19.813h10.263v3.12h-6.521v4.751h5.82V30.79z"/>
			<path fill="#FFFFFF" d="M248.68,34.559h-5.106l-0.995,3.795h-3.96l5.794-18.541h3.426l5.832,18.541h-3.999L248.68,34.559z
				 M244.387,31.44h3.463l-1.732-6.609L244.387,31.44z"/>
			<path fill="#FFFFFF" d="M259.833,38.354h-3.744V19.813h3.744V38.354z"/>
			<path fill="#FFFFFF" d="M269.114,31.58h-1.859v6.773h-3.744V19.813h5.973c0.924,0,1.752,0.123,2.478,0.364
				c0.725,0.242,1.34,0.599,1.846,1.07c0.506,0.472,0.89,1.055,1.157,1.751c0.267,0.696,0.403,1.502,0.403,2.419
				c0,0.672-0.063,1.277-0.186,1.814c-0.124,0.539-0.304,1.021-0.534,1.438c-0.234,0.421-0.517,0.788-0.847,1.103
				c-0.332,0.315-0.705,0.586-1.123,0.814l3.248,7.59v0.178h-4.021L269.114,31.58z M267.255,28.46h2.127
				c0.748,0,1.308-0.249,1.681-0.745c0.371-0.498,0.559-1.162,0.559-1.993c0-0.424-0.041-0.808-0.12-1.151
				c-0.08-0.344-0.208-0.637-0.382-0.878c-0.174-0.243-0.396-0.431-0.667-0.562c-0.271-0.13-0.596-0.198-0.969-0.198h-2.229V28.46z"
				/>
		</g>
		<g>
			<path fill="#FFFFFF" d="M68.451,5.254l-0.86,0.997v2.66h-0.58V1.494h0.58v3.954l0.815-1.02l2.297-2.934h0.729l-2.588,3.301
				l2.787,4.117h-0.709L68.451,5.254z"/>
			<path fill="#FFFFFF" d="M73.875,7.978l1.315-4.58h0.604l-1.939,6.393c-0.04,0.127-0.09,0.265-0.152,0.423
				c-0.062,0.158-0.143,0.302-0.245,0.437c-0.102,0.137-0.227,0.251-0.374,0.345c-0.148,0.093-0.327,0.14-0.538,0.14
				c-0.028,0-0.063-0.002-0.101-0.008c-0.037-0.005-0.076-0.01-0.114-0.018c-0.039-0.005-0.076-0.015-0.109-0.022
				c-0.034-0.008-0.063-0.016-0.084-0.024l-0.003-0.518c0.033,0.009,0.077,0.02,0.133,0.026c0.057,0.006,0.101,0.009,0.126,0.009
				c0.137,0,0.256-0.022,0.358-0.065c0.106-0.041,0.198-0.104,0.275-0.187c0.082-0.083,0.151-0.189,0.212-0.312
				c0.062-0.122,0.116-0.267,0.164-0.431l0.214-0.711l-1.732-5.477h0.621L73.875,7.978z"/>
			<path fill="#FFFFFF" d="M76.754,1.81c0-0.115,0.032-0.213,0.097-0.294c0.064-0.083,0.155-0.124,0.274-0.124
				s0.213,0.041,0.277,0.124c0.067,0.081,0.101,0.179,0.101,0.294c0,0.114-0.033,0.213-0.101,0.292
				c-0.064,0.081-0.158,0.121-0.277,0.121s-0.21-0.041-0.274-0.121C76.786,2.023,76.754,1.924,76.754,1.81z M77.405,8.911h-0.569
				V3.398h0.569V8.911z"/>
			<path fill="#FFFFFF" d="M80.432,8.024l1.354-4.625h0.581L80.65,8.911h-0.448l-1.728-5.513h0.581L80.432,8.024z"/>
			<path fill="#FFFFFF" d="M86.442,5.895v3.017h-0.581V1.494h2.154c0.346,0,0.651,0.054,0.913,0.164
				c0.265,0.108,0.484,0.261,0.663,0.456s0.313,0.429,0.401,0.7c0.091,0.274,0.136,0.573,0.136,0.898
				c0,0.342-0.045,0.649-0.136,0.921c-0.088,0.271-0.223,0.5-0.401,0.688c-0.179,0.187-0.398,0.33-0.663,0.426
				c-0.262,0.1-0.567,0.148-0.913,0.148H86.442z M86.442,5.351h1.573c0.271,0,0.505-0.042,0.698-0.126
				c0.192-0.084,0.352-0.196,0.476-0.345c0.126-0.146,0.216-0.318,0.273-0.517c0.057-0.199,0.085-0.412,0.085-0.644
				c0-0.225-0.028-0.438-0.085-0.64c-0.058-0.206-0.147-0.383-0.273-0.536c-0.124-0.153-0.283-0.275-0.476-0.366
				c-0.193-0.09-0.427-0.135-0.698-0.135h-1.573V5.351z"/>
			<path fill="#FFFFFF" d="M91.081,5.875c0-0.418,0.05-0.786,0.147-1.106c0.101-0.318,0.238-0.586,0.414-0.806
				c0.175-0.22,0.388-0.384,0.634-0.497c0.245-0.112,0.52-0.169,0.816-0.169c0.305,0,0.579,0.057,0.825,0.169
				c0.248,0.112,0.462,0.276,0.637,0.497c0.178,0.219,0.313,0.487,0.41,0.806c0.097,0.32,0.145,0.688,0.145,1.106v0.57
				c0,0.418-0.048,0.786-0.145,1.106c-0.097,0.319-0.232,0.585-0.41,0.801c-0.175,0.215-0.387,0.379-0.634,0.492
				c-0.246,0.112-0.518,0.168-0.818,0.168s-0.575-0.056-0.823-0.168s-0.462-0.276-0.637-0.492c-0.176-0.216-0.313-0.482-0.414-0.801
				c-0.098-0.32-0.147-0.688-0.147-1.106V5.875z M91.652,6.444c0,0.315,0.033,0.602,0.096,0.853c0.066,0.25,0.16,0.463,0.283,0.64
				c0.126,0.177,0.275,0.312,0.455,0.408c0.181,0.097,0.387,0.142,0.616,0.142c0.246,0,0.458-0.045,0.637-0.142
				c0.182-0.096,0.332-0.231,0.449-0.408c0.121-0.177,0.209-0.391,0.267-0.64c0.06-0.251,0.089-0.538,0.089-0.853v-0.57
				c0-0.308-0.03-0.588-0.096-0.842c-0.063-0.255-0.157-0.47-0.284-0.646c-0.122-0.181-0.273-0.317-0.453-0.414
				c-0.181-0.098-0.386-0.144-0.618-0.144c-0.227,0-0.429,0.046-0.609,0.144c-0.177,0.097-0.326,0.233-0.452,0.414
				c-0.123,0.176-0.217,0.392-0.283,0.646c-0.063,0.254-0.096,0.534-0.096,0.842V6.444z"/>
			<path fill="#FFFFFF" d="M99.17,7.554c0-0.109-0.02-0.215-0.064-0.315c-0.04-0.097-0.113-0.193-0.208-0.285
				c-0.098-0.092-0.225-0.185-0.383-0.28c-0.157-0.095-0.352-0.198-0.587-0.306c-0.253-0.112-0.477-0.22-0.673-0.323
				c-0.196-0.103-0.361-0.215-0.497-0.336c-0.133-0.12-0.237-0.256-0.309-0.407c-0.07-0.151-0.107-0.332-0.107-0.537
				c0-0.204,0.039-0.396,0.116-0.572c0.077-0.181,0.187-0.334,0.328-0.467c0.143-0.132,0.315-0.238,0.52-0.314
				c0.204-0.077,0.431-0.116,0.682-0.116c0.269,0,0.51,0.04,0.724,0.121s0.395,0.19,0.542,0.333c0.148,0.143,0.263,0.313,0.34,0.513
				c0.078,0.198,0.117,0.415,0.117,0.65h-0.566c0-0.146-0.024-0.28-0.077-0.413c-0.05-0.13-0.124-0.245-0.222-0.346
				c-0.101-0.101-0.221-0.18-0.362-0.24c-0.143-0.059-0.307-0.088-0.495-0.088c-0.193,0-0.357,0.027-0.494,0.079
				c-0.135,0.051-0.246,0.123-0.336,0.209c-0.087,0.087-0.152,0.184-0.192,0.294c-0.041,0.112-0.062,0.222-0.062,0.333
				c0,0.113,0.018,0.212,0.05,0.299c0.035,0.087,0.098,0.171,0.187,0.252c0.09,0.082,0.211,0.166,0.365,0.253
				c0.151,0.087,0.349,0.187,0.59,0.302c0.255,0.113,0.482,0.22,0.687,0.324C98.986,6.28,99.16,6.396,99.3,6.525
				c0.142,0.125,0.249,0.27,0.326,0.429c0.076,0.159,0.114,0.35,0.114,0.57c0,0.229-0.04,0.433-0.122,0.617S99.42,8.48,99.27,8.608
				c-0.15,0.129-0.332,0.229-0.546,0.3c-0.211,0.068-0.447,0.103-0.706,0.103c-0.297,0-0.562-0.042-0.788-0.129
				c-0.227-0.086-0.418-0.203-0.572-0.349c-0.156-0.147-0.271-0.317-0.353-0.51c-0.078-0.193-0.119-0.399-0.119-0.616h0.57
				c0.011,0.217,0.056,0.397,0.135,0.536c0.08,0.138,0.18,0.248,0.297,0.331c0.121,0.081,0.253,0.137,0.397,0.168
				c0.146,0.03,0.29,0.045,0.433,0.045c0.188,0,0.354-0.022,0.497-0.074c0.146-0.048,0.266-0.116,0.362-0.199
				c0.098-0.081,0.17-0.18,0.219-0.294C99.146,7.807,99.17,7.683,99.17,7.554z"/>
			<path fill="#FFFFFF" d="M101.921,1.992v1.406h0.941v0.51h-0.941v3.661c0,0.19,0.017,0.345,0.047,0.462
				c0.034,0.117,0.077,0.208,0.131,0.272c0.054,0.064,0.117,0.109,0.187,0.13c0.07,0.021,0.145,0.034,0.22,0.034
				c0.076,0,0.148-0.007,0.219-0.018c0.073-0.011,0.137-0.023,0.189-0.034l0.015,0.509c-0.061,0.029-0.14,0.05-0.241,0.065
				c-0.1,0.016-0.204,0.022-0.313,0.022c-0.145,0-0.28-0.022-0.405-0.071c-0.122-0.048-0.231-0.127-0.323-0.238
				c-0.092-0.112-0.162-0.26-0.212-0.447c-0.054-0.184-0.077-0.415-0.077-0.69V3.909h-0.852v-0.51h0.852V1.992H101.921z"/>
		</g>
	</g>
	<g>
		<polygon fill="#EF5350" points="51.908,2.431 47.146,4.14 39.831,6.767 34.52,8.686 29.071,10.632 22.205,13.099 14.5,15.857 
			7.872,18.226 7.872,18.242 0.074,21.033 7.872,24.609 12.315,26.667 18.18,23.294 25.639,19.003 31.795,15.459 34.521,13.882 
			42.677,9.201 46.36,7.083 51.094,4.36 58.671,0 		"/>
		<polygon fill="#EF5350" points="49.973,6.667 44.798,10.632 35.587,17.688 30.71,21.424 22.764,27.515 18.919,30.462 
			25.865,33.762 25.865,33.762 34.089,37.675 38.403,31.058 41.473,26.356 45.62,20 49.973,13.334 51.908,10.366 55.508,4.854 
			58.671,0 		"/>
		<polygon fill="#D32E2E" points="46.36,7.083 42.677,9.201 34.521,13.882 31.795,15.459 25.639,19.003 18.18,23.294 12.315,26.667 
			17.328,40 18.007,35.936 18.469,33.16 18.919,30.462 18.919,30.458 26.069,24.98 30.71,21.424 35.587,17.688 39.683,14.547 
			44.798,10.632 49.973,6.667 58.671,0 		"/>
		<polygon fill="#B72025" points="18.919,30.462 18.469,33.16 17.328,40 21.376,36.192 24.601,33.158 		"/>
	</g>
</g>
</svg>
