<?xml version="1.0" encoding="utf-8"?>
<!-- Generator: Adobe Illustrator 16.0.3, SVG Export Plug-In . SVG Version: 6.00 Build 0)  -->
<!DOCTYPE svg PUBLIC "-//W3C//DTD SVG 1.1//EN" "http://www.w3.org/Graphics/SVG/1.1/DTD/svg11.dtd">
<svg version="1.1" id="Layer_1" xmlns="http://www.w3.org/2000/svg" xmlns:xlink="http://www.w3.org/1999/xlink" x="0px" y="0px"
	 width="940px" height="90px" viewBox="0 0 940 90" enable-background="new 0 0 940 90" xml:space="preserve">
<g>
	<defs>
		<rect id="SVGID_1_" width="940" height="90"/>
	</defs>
	<clipPath id="SVGID_2_">
		<use xlink:href="#SVGID_1_"  overflow="visible"/>
	</clipPath>
	<rect clip-path="url(#SVGID_2_)" fill="#00ACC1" width="940" height="90"/>
	<g clip-path="url(#SVGID_2_)">
		<defs>
			<rect id="SVGID_3_" width="940" height="90"/>
		</defs>
		<clipPath id="SVGID_4_">
			<use xlink:href="#SVGID_3_"  overflow="visible"/>
		</clipPath>
		<g clip-path="url(#SVGID_4_)">
			<g opacity="0.6">
				<g>
					<path opacity="0.4" fill="#FFFFFF" d="M722.374-33.938c0-0.138-0.023-0.27-0.023-0.408c0-3.921,3.184-7.096,7.107-7.096
						c1.543,0,2.973,0.498,4.138,1.34c0-0.061-0.01-0.126-0.01-0.186c0-4.722,3.821-8.551,8.553-8.551
						c4.722,0,8.543,3.829,8.543,8.551c0,0.053,0,0.106,0,0.16c0.617-0.206,1.273-0.323,1.972-0.323c3.44,0,6.232,2.792,6.232,6.236
						c0,0.091-0.007,0.184-0.018,0.276H722.374z"/>
					<path opacity="0.4" fill="#FFFFFF" d="M789.406,42.169c-0.374-0.794-0.595-1.674-0.595-2.611c0-3.363,2.728-6.091,6.092-6.091
						c0.894,0,1.735,0.196,2.495,0.539c0.321-5.316,4.735-9.534,10.132-9.534c5.156,0,9.414,3.846,10.065,8.823
						c1.296-0.913,2.873-1.451,4.576-1.451c4.336,0,7.857,3.459,7.97,7.769c0.637-0.49,1.432-0.789,2.304-0.789
						c1.936,0,3.533,1.464,3.747,3.346H789.406z"/>
					<path opacity="0.2" fill="#FFFFFF" d="M790.177,90c-0.376-0.791-0.594-1.674-0.594-2.609c0-3.364,2.724-6.094,6.091-6.094
						c0.891,0,1.733,0.197,2.494,0.542c0.321-5.318,4.733-9.53,10.133-9.53c5.154,0,9.411,3.839,10.064,8.816
						c1.296-0.91,2.871-1.45,4.578-1.45c4.336,0,7.854,3.462,7.969,7.771c0.635-0.493,1.432-0.792,2.301-0.792
						c1.938,0,3.535,1.463,3.748,3.346H790.177z"/>
					<path opacity="0.5" fill="#FFFFFF" d="M726.869,11.16c-0.33-0.678-0.509-1.43-0.509-2.226c0-2.87,2.326-5.194,5.192-5.194
						c0.756,0,1.479,0.168,2.122,0.461c0.278-4.534,4.038-8.125,8.633-8.125c4.396,0,8.021,3.278,8.579,7.518
						c1.105-0.776,2.449-1.237,3.899-1.237c3.696,0,6.697,2.948,6.792,6.625c0.543-0.423,1.221-0.675,1.964-0.675
						c1.655,0,3.013,1.249,3.192,2.854H726.869z"/>
					<path opacity="0.5" fill="#FFFFFF" d="M795.463,0.028c-0.484-1.018-0.765-2.156-0.765-3.361c0-4.33,3.511-7.839,7.84-7.839
						c1.145,0,2.229,0.251,3.21,0.696c0.417-6.848,6.093-12.269,13.041-12.269c6.636,0,12.111,4.944,12.952,11.348
						c1.667-1.171,3.696-1.864,5.89-1.864c5.578,0,10.108,4.457,10.251,9.999c0.819-0.634,1.851-1.018,2.968-1.018
						c2.495,0,4.548,1.887,4.816,4.308H795.463z"/>
					<path opacity="0.4" fill="#FFFFFF" d="M887.953,21.568c-0.011-0.163-0.029-0.325-0.029-0.489c0-4.726,3.832-8.555,8.556-8.555
						c1.865,0,3.583,0.603,4.988,1.617c0-0.074-0.003-0.15-0.003-0.227c0-5.686,4.607-10.298,10.299-10.298
						c5.689,0,10.299,4.612,10.299,10.298c0,0.068-0.004,0.132-0.007,0.197c0.752-0.249,1.546-0.391,2.378-0.391
						c4.15,0,7.514,3.365,7.514,7.514c0,0.11-0.011,0.221-0.017,0.333H887.953z"/>
					<path opacity="0.5" fill="#FFFFFF" d="M834.627-52.931c-0.007-0.167-0.022-0.323-0.022-0.485c0-4.658,3.775-8.431,8.433-8.431
						c1.839,0,3.535,0.592,4.919,1.592c-0.002-0.074-0.008-0.149-0.008-0.224c0-5.607,4.546-10.152,10.155-10.152
						c5.604,0,10.155,4.545,10.155,10.152c0,0.063-0.005,0.128-0.008,0.193c0.737-0.245,1.524-0.383,2.344-0.383
						c4.092,0,7.409,3.313,7.409,7.405c0,0.11-0.013,0.217-0.02,0.332H834.627z"/>
					<path opacity="0.25" fill="#FFFFFF" d="M694.971,59.867c-0.004-0.16-0.019-0.32-0.019-0.484c0-4.653,3.768-8.429,8.429-8.429
						c1.84,0,3.534,0.595,4.919,1.593c0-0.074-0.011-0.147-0.011-0.22c0-5.606,4.547-10.158,10.152-10.158
						c5.615,0,10.164,4.552,10.164,10.158c0,0.063-0.007,0.128-0.007,0.189c0.733-0.243,1.52-0.384,2.345-0.384
						c4.09,0,7.406,3.316,7.406,7.406c0,0.11-0.014,0.219-0.023,0.328H694.971z"/>
					<path opacity="0.2" fill="#FFFFFF" d="M669.872-63.934c-0.004-0.162-0.018-0.317-0.018-0.483c0-4.654,3.764-8.433,8.425-8.433
						c1.833,0,3.53,0.595,4.922,1.595c0-0.077-0.008-0.146-0.008-0.222c0-5.609,4.548-10.153,10.155-10.153
						c5.604,0,10.153,4.544,10.153,10.153c0,0.064-0.012,0.128-0.012,0.192c0.74-0.244,1.531-0.387,2.347-0.387
						c4.096,0,7.403,3.319,7.403,7.409c0,0.109-0.014,0.216-0.014,0.328H669.872z"/>
					<path opacity="0.3" fill="#FFFFFF" d="M630.777,22.964c-0.198-0.479-0.312-1.007-0.312-1.559c0-2.235,1.81-4.044,4.05-4.044
						c0.257,0,0.517,0.027,0.772,0.077c-0.139-0.541-0.216-1.103-0.216-1.685c0-3.786,3.063-6.855,6.85-6.855
						c1.285,0,2.494,0.363,3.513,0.979c0.961-5.961,6.109-10.522,12.329-10.522c6.9,0,12.486,5.578,12.507,12.468
						c1.563-1.62,3.74-2.627,6.161-2.627c4.698,0,8.505,3.789,8.548,8.48c0.49-0.2,1.016-0.314,1.573-0.314
						c2.229,0,4.043,1.809,4.043,4.044c0,0.552-0.11,1.079-0.313,1.559H630.777z"/>
					<path opacity="0.3" fill="#FFFFFF" d="M893.519-72.783c-0.153-0.373-0.241-0.781-0.241-1.21c0-1.735,1.408-3.144,3.146-3.144
						c0.2,0,0.404,0.021,0.603,0.062c-0.109-0.421-0.168-0.857-0.168-1.31c0-2.941,2.38-5.326,5.321-5.326
						c1,0,1.938,0.281,2.729,0.76c0.748-4.633,4.747-8.176,9.581-8.176c5.361,0,9.703,4.335,9.718,9.688
						c1.213-1.259,2.907-2.043,4.789-2.043c3.649,0,6.607,2.946,6.641,6.591c0.382-0.157,0.788-0.245,1.224-0.245
						c1.73,0,3.14,1.408,3.14,3.144c0,0.429-0.085,0.837-0.24,1.21H893.519z"/>
					<path opacity="0.3" fill="#FFFFFF" d="M753.616-65.327c-0.2-0.479-0.313-1.007-0.313-1.556c0-2.234,1.815-4.043,4.045-4.043
						c0.263,0,0.53,0.025,0.773,0.073c-0.142-0.539-0.219-1.102-0.219-1.681c0-3.787,3.073-6.854,6.862-6.854
						c1.282,0,2.487,0.358,3.517,0.979c0.946-5.964,6.098-10.526,12.325-10.526c6.893,0,12.483,5.578,12.499,12.469
						c1.557-1.618,3.738-2.631,6.163-2.631c4.698,0,8.512,3.794,8.545,8.484c0.483-0.203,1.018-0.313,1.571-0.313
						c2.234,0,4.044,1.809,4.044,4.043c0,0.549-0.111,1.076-0.313,1.556H753.616z"/>
					<path opacity="0.25" fill="#FFFFFF" d="M888.277-22.428c-0.011-0.163-0.025-0.32-0.025-0.485c0-4.656,3.775-8.431,8.433-8.431
						c1.427,0,2.767,0.357,3.946,0.981c1.333-4.889,5.806-8.489,11.117-8.489c6.368,0,11.53,5.162,11.53,11.53
						c0,1.749-0.392,3.403-1.089,4.894H888.277z"/>
					<path opacity="0.2" fill="#FFFFFF" d="M847.89,56.092c-0.008-0.161-0.024-0.322-0.024-0.485c0-4.689,3.805-8.491,8.495-8.491
						c1.437,0,2.791,0.359,3.975,0.991c1.344-4.927,5.847-8.553,11.2-8.553c6.414,0,11.611,5.198,11.611,11.609
						c0,1.764-0.395,3.435-1.098,4.929H847.89z"/>
					<path opacity="0.2" fill="#FFFFFF" d="M731.823,90c-0.01-0.137-0.022-0.266-0.022-0.403c0-3.925,3.175-7.104,7.106-7.104
						c1.198,0,2.322,0.305,3.321,0.828c1.117-4.121,4.882-7.148,9.364-7.148c5.355,0,9.699,4.346,9.699,9.709
						c0,1.47-0.328,2.87-0.915,4.118H731.823z"/>
				</g>
				<g>
					<path opacity="0.4" fill="#FFFFFF" d="M96.261-33.938c0-0.138-0.025-0.27-0.025-0.408c0-3.921,3.183-7.096,7.104-7.096
						c1.544,0,2.975,0.498,4.141,1.34c0-0.061-0.012-0.126-0.012-0.186c0-4.722,3.824-8.551,8.554-8.551
						c4.72,0,8.543,3.829,8.543,8.551c0,0.053,0,0.106,0,0.16c0.617-0.206,1.272-0.323,1.971-0.323c3.441,0,6.233,2.792,6.233,6.236
						c0,0.091-0.007,0.184-0.02,0.276H96.261z"/>
					<path opacity="0.4" fill="#FFFFFF" d="M163.292,42.169c-0.375-0.794-0.597-1.674-0.597-2.611c0-3.363,2.729-6.091,6.094-6.091
						c0.891,0,1.734,0.196,2.498,0.539c0.32-5.316,4.73-9.534,10.128-9.534c5.158,0,9.414,3.846,10.067,8.823
						c1.293-0.913,2.873-1.451,4.575-1.451c4.337,0,7.854,3.459,7.967,7.769c0.636-0.49,1.431-0.789,2.304-0.789
						c1.938,0,3.535,1.464,3.747,3.346H163.292z"/>
					<path opacity="0.5" fill="#FFFFFF" d="M100.753,11.16c-0.33-0.678-0.508-1.43-0.508-2.226c0-2.87,2.326-5.194,5.192-5.194
						c0.755,0,1.477,0.168,2.12,0.461c0.279-4.534,4.039-8.125,8.636-8.125c4.395,0,8.02,3.278,8.579,7.518
						c1.104-0.776,2.447-1.237,3.899-1.237c3.697,0,6.696,2.948,6.792,6.625c0.542-0.423,1.222-0.675,1.966-0.675
						c1.653,0,3.011,1.249,3.19,2.854H100.753z"/>
					<path opacity="0.5" fill="#FFFFFF" d="M169.348,0.028c-0.486-1.018-0.768-2.156-0.768-3.361c0-4.33,3.513-7.839,7.843-7.839
						c1.144,0,2.231,0.251,3.21,0.696c0.415-6.848,6.092-12.269,13.04-12.269c6.637,0,12.111,4.944,12.951,11.348
						c1.67-1.171,3.699-1.864,5.89-1.864c5.581,0,10.113,4.457,10.252,9.999c0.822-0.634,1.848-1.018,2.97-1.018
						c2.494,0,4.546,1.887,4.813,4.308H169.348z"/>
					<path opacity="0.4" fill="#FFFFFF" d="M261.837,21.568c-0.008-0.163-0.025-0.325-0.025-0.489c0-4.726,3.828-8.555,8.55-8.555
						c1.867,0,3.586,0.603,4.993,1.617c-0.003-0.074-0.005-0.15-0.005-0.227c0-5.686,4.608-10.298,10.297-10.298
						c5.689,0,10.3,4.612,10.3,10.298c0,0.068-0.005,0.132-0.005,0.197c0.75-0.249,1.544-0.391,2.375-0.391
						c4.153,0,7.515,3.365,7.515,7.514c0,0.11-0.009,0.221-0.017,0.333H261.837z"/>
					<path opacity="0.5" fill="#FFFFFF" d="M208.511-52.931c-0.004-0.167-0.021-0.323-0.021-0.485c0-4.658,3.776-8.431,8.432-8.431
						c1.84,0,3.534,0.592,4.918,1.592c-0.004-0.074-0.007-0.149-0.007-0.224c0-5.607,4.544-10.152,10.154-10.152
						c5.605,0,10.156,4.545,10.156,10.152c0,0.063-0.005,0.128-0.007,0.193c0.737-0.245,1.526-0.383,2.343-0.383
						c4.093,0,7.408,3.313,7.408,7.405c0,0.11-0.01,0.217-0.018,0.332H208.511z"/>
					<path opacity="0.2" fill="#FFFFFF" d="M43.757-63.934c-0.007-0.162-0.017-0.317-0.017-0.483c0-4.654,3.762-8.433,8.423-8.433
						c1.833,0,3.53,0.595,4.922,1.595c0-0.077-0.011-0.146-0.011-0.222c0-5.609,4.549-10.153,10.157-10.153
						c5.606,0,10.157,4.544,10.157,10.153c0,0.064-0.013,0.128-0.013,0.192c0.739-0.244,1.531-0.387,2.345-0.387
						c4.097,0,7.405,3.319,7.405,7.409c0,0.109-0.013,0.216-0.013,0.328H43.757z"/>
					<path opacity="0.3" fill="#FFFFFF" d="M267.405-72.783c-0.156-0.373-0.241-0.781-0.241-1.21c0-1.735,1.406-3.144,3.143-3.144
						c0.202,0,0.405,0.021,0.602,0.062c-0.107-0.421-0.167-0.857-0.167-1.31c0-2.941,2.381-5.326,5.323-5.326
						c0.999,0,1.939,0.281,2.73,0.76c0.747-4.633,4.744-8.176,9.579-8.176c5.362,0,9.704,4.335,9.719,9.688
						c1.212-1.259,2.905-2.043,4.789-2.043c3.649,0,6.607,2.946,6.641,6.591c0.382-0.157,0.79-0.245,1.223-0.245
						c1.732,0,3.142,1.408,3.142,3.144c0,0.429-0.088,0.837-0.245,1.21H267.405z"/>
					<path opacity="0.3" fill="#FFFFFF" d="M127.501-65.327c-0.202-0.479-0.312-1.007-0.312-1.556c0-2.234,1.815-4.043,4.044-4.043
						c0.262,0,0.529,0.025,0.774,0.073c-0.142-0.539-0.219-1.102-0.219-1.681c0-3.787,3.073-6.854,6.861-6.854
						c1.284,0,2.487,0.358,3.517,0.979c0.945-5.964,6.098-10.526,12.327-10.526c6.891,0,12.481,5.578,12.499,12.469
						c1.559-1.618,3.738-2.631,6.162-2.631c4.699,0,8.512,3.794,8.547,8.484c0.483-0.203,1.016-0.313,1.569-0.313
						c2.238,0,4.044,1.809,4.044,4.043c0,0.549-0.108,1.076-0.309,1.556H127.501z"/>
					<path opacity="0.25" fill="#FFFFFF" d="M262.162-22.428c-0.01-0.163-0.024-0.32-0.024-0.485c0-4.656,3.773-8.431,8.432-8.431
						c1.427,0,2.768,0.357,3.947,0.981c1.332-4.889,5.804-8.489,11.117-8.489c6.369,0,11.528,5.162,11.528,11.53
						c0,1.749-0.391,3.403-1.086,4.894H262.162z"/>
					<path opacity="0.2" fill="#FFFFFF" d="M221.775,56.092c-0.009-0.161-0.024-0.322-0.024-0.485c0-4.689,3.804-8.491,8.491-8.491
						c1.439,0,2.793,0.359,3.979,0.991c1.342-4.927,5.848-8.553,11.2-8.553c6.414,0,11.611,5.198,11.611,11.609
						c0,1.764-0.396,3.435-1.098,4.929H221.775z"/>
				</g>
				<g>
					<path opacity="0.4" fill="#FFFFFF" d="M409.319-33.346c0-0.138-0.025-0.27-0.025-0.408c0-3.922,3.182-7.097,7.104-7.097
						c1.544,0,2.975,0.5,4.142,1.341c0-0.062-0.014-0.125-0.014-0.187c0-4.722,3.826-8.549,8.556-8.549
						c4.72,0,8.542,3.827,8.542,8.549c0,0.056,0,0.109,0,0.162c0.617-0.208,1.273-0.325,1.97-0.325c3.442,0,6.234,2.792,6.234,6.237
						c0,0.09-0.007,0.183-0.02,0.276H409.319z"/>
					<path opacity="0.4" fill="#FFFFFF" d="M613.557,69.309c-0.375-0.794-0.594-1.674-0.594-2.612c0-3.362,2.729-6.091,6.094-6.091
						c0.891,0,1.733,0.197,2.496,0.54c0.32-5.317,4.732-9.535,10.131-9.535c5.156,0,9.413,3.847,10.066,8.823
						c1.293-0.912,2.872-1.45,4.573-1.45c4.338,0,7.857,3.459,7.97,7.768c0.637-0.489,1.43-0.788,2.301-0.788
						c1.94,0,3.537,1.463,3.748,3.346H613.557z"/>
					<path opacity="0.5" fill="#FFFFFF" d="M413.811,11.753c-0.33-0.677-0.509-1.431-0.509-2.225c0-2.87,2.327-5.193,5.193-5.193
						c0.756,0,1.478,0.165,2.121,0.459c0.279-4.533,4.039-8.126,8.635-8.126c4.396,0,8.02,3.278,8.579,7.518
						c1.104-0.774,2.447-1.236,3.899-1.236c3.698,0,6.698,2.949,6.792,6.626c0.542-0.423,1.222-0.677,1.966-0.677
						c1.654,0,3.011,1.251,3.19,2.854H413.811z"/>
					<path opacity="0.5" fill="#FFFFFF" d="M497.551,29.259c-0.486-1.021-0.768-2.159-0.768-3.363c0-4.328,3.514-7.84,7.842-7.84
						c1.146,0,2.23,0.251,3.211,0.695c0.416-6.846,6.093-12.266,13.041-12.266c6.637,0,12.11,4.942,12.95,11.347
						c1.671-1.171,3.699-1.865,5.891-1.865c5.579,0,10.11,4.457,10.251,10.002c0.82-0.637,1.848-1.021,2.97-1.021
						c2.493,0,4.547,1.889,4.813,4.311H497.551z"/>
					<path opacity="0.4" fill="#FFFFFF" d="M574.895,22.161c-0.009-0.161-0.025-0.323-0.025-0.49c0-4.725,3.828-8.552,8.551-8.552
						c1.865,0,3.588,0.6,4.992,1.616c-0.004-0.075-0.004-0.152-0.004-0.227c0-5.688,4.609-10.298,10.299-10.298
						c5.688,0,10.299,4.61,10.299,10.298c0,0.066-0.006,0.13-0.006,0.197c0.752-0.251,1.545-0.39,2.376-0.39
						c4.153,0,7.513,3.363,7.513,7.513c0,0.109-0.01,0.219-0.016,0.332H574.895z"/>
					<path opacity="0.5" fill="#FFFFFF" d="M521.569-52.339c-0.005-0.166-0.021-0.323-0.021-0.485c0-4.656,3.775-8.431,8.432-8.431
						c1.839,0,3.533,0.592,4.92,1.592c-0.004-0.074-0.01-0.147-0.01-0.224c0-5.607,4.545-10.152,10.154-10.152
						c5.606,0,10.157,4.545,10.157,10.152c0,0.066-0.007,0.128-0.009,0.194c0.737-0.245,1.525-0.384,2.344-0.384
						c4.094,0,7.408,3.314,7.408,7.406c0,0.109-0.01,0.216-0.018,0.331H521.569z"/>
					<path opacity="0.25" fill="#FFFFFF" d="M381.914,60.46c-0.007-0.16-0.02-0.319-0.02-0.482c0-4.656,3.766-8.43,8.426-8.43
						c1.844,0,3.535,0.594,4.922,1.593c0-0.076-0.01-0.149-0.01-0.222c0-5.608,4.548-10.158,10.151-10.158
						c5.617,0,10.163,4.55,10.163,10.158c0,0.064-0.007,0.13-0.007,0.19c0.736-0.243,1.52-0.384,2.347-0.384
						c4.089,0,7.407,3.315,7.407,7.406c0,0.109-0.014,0.218-0.027,0.328H381.914z"/>
					<path opacity="0.2" fill="#FFFFFF" d="M356.814-63.342c-0.006-0.162-0.016-0.317-0.016-0.483c0-4.654,3.762-8.431,8.422-8.431
						c1.834,0,3.529,0.596,4.922,1.593c0-0.077-0.009-0.146-0.009-0.222c0-5.609,4.548-10.152,10.156-10.152
						c5.607,0,10.157,4.543,10.157,10.152c0,0.065-0.012,0.128-0.012,0.194c0.739-0.246,1.53-0.389,2.345-0.389
						c4.097,0,7.405,3.319,7.405,7.41c0,0.109-0.012,0.215-0.012,0.327H356.814z"/>
					<path opacity="0.3" fill="#FFFFFF" d="M317.717,23.558c-0.198-0.48-0.309-1.006-0.309-1.558c0-2.236,1.812-4.046,4.048-4.046
						c0.257,0,0.521,0.028,0.771,0.076c-0.134-0.541-0.214-1.101-0.214-1.684c0-3.787,3.065-6.855,6.85-6.855
						c1.287,0,2.496,0.363,3.513,0.98c0.96-5.964,6.109-10.524,12.328-10.524c6.902,0,12.487,5.579,12.507,12.467
						c1.563-1.618,3.741-2.627,6.165-2.627c4.697,0,8.502,3.789,8.543,8.48c0.496-0.2,1.019-0.313,1.576-0.313
						c2.23,0,4.042,1.81,4.042,4.046c0,0.552-0.111,1.077-0.311,1.558H317.717z"/>
					<path opacity="0.3" fill="#FFFFFF" d="M295.915,62.265c-0.198-0.48-0.31-1.005-0.31-1.558c0-2.236,1.811-4.046,4.048-4.046
						c0.256,0,0.52,0.028,0.772,0.078c-0.135-0.542-0.215-1.102-0.215-1.684c0-3.788,3.064-6.856,6.85-6.856
						c1.286,0,2.495,0.364,3.513,0.979c0.961-5.962,6.11-10.522,12.327-10.522c6.902,0,12.488,5.577,12.507,12.467
						c1.563-1.62,3.741-2.629,6.166-2.629c4.696,0,8.503,3.792,8.542,8.482c0.496-0.2,1.02-0.315,1.577-0.315
						c2.229,0,4.042,1.81,4.042,4.046c0,0.553-0.111,1.077-0.313,1.558H295.915z"/>
					<path opacity="0.3" fill="#FFFFFF" d="M580.463-72.189c-0.155-0.373-0.24-0.782-0.24-1.211c0-1.736,1.404-3.143,3.143-3.143
						c0.201,0,0.406,0.021,0.604,0.06c-0.111-0.421-0.168-0.855-0.168-1.31c0-2.941,2.378-5.326,5.321-5.326
						c0.999,0,1.938,0.282,2.731,0.761c0.745-4.632,4.742-8.176,9.578-8.176c5.361,0,9.701,4.335,9.719,9.687
						c1.212-1.259,2.908-2.042,4.787-2.042c3.65,0,6.609,2.945,6.643,6.59c0.383-0.155,0.788-0.243,1.223-0.243
						c1.73,0,3.143,1.406,3.143,3.143c0,0.429-0.087,0.838-0.244,1.211H580.463z"/>
					<path opacity="0.3" fill="#FFFFFF" d="M440.558-64.733c-0.202-0.48-0.313-1.008-0.313-1.558c0-2.231,1.815-4.042,4.045-4.042
						c0.263,0,0.53,0.025,0.772,0.072c-0.141-0.537-0.219-1.102-0.219-1.68c0-3.786,3.074-6.854,6.863-6.854
						c1.284,0,2.488,0.358,3.517,0.979c0.945-5.962,6.097-10.526,12.328-10.526c6.89,0,12.483,5.578,12.498,12.47
						c1.559-1.618,3.738-2.631,6.163-2.631c4.697,0,8.511,3.793,8.546,8.485c0.482-0.202,1.016-0.314,1.571-0.314
						c2.235,0,4.044,1.811,4.044,4.042c0,0.55-0.113,1.077-0.313,1.558H440.558z"/>
					<path opacity="0.25" fill="#FFFFFF" d="M575.221-21.836c-0.012-0.161-0.024-0.318-0.024-0.485c0-4.655,3.772-8.431,8.434-8.431
						c1.424,0,2.765,0.359,3.944,0.984c1.334-4.89,5.805-8.49,11.117-8.49c6.369,0,11.529,5.16,11.529,11.529
						c0,1.748-0.394,3.402-1.088,4.893H575.221z"/>
					<path opacity="0.2" fill="#FFFFFF" d="M534.832,56.684c-0.008-0.16-0.023-0.321-0.023-0.485c0-4.689,3.805-8.491,8.492-8.491
						c1.438,0,2.793,0.359,3.979,0.991c1.342-4.927,5.847-8.55,11.201-8.55c6.412,0,11.609,5.196,11.609,11.606
						c0,1.766-0.396,3.436-1.1,4.929H534.832z"/>
				</g>
			</g>
		</g>
	</g>
	<g clip-path="url(#SVGID_2_)">
		<defs>
			<rect id="SVGID_5_" x="424" y="22" width="91" height="75"/>
		</defs>
		<clipPath id="SVGID_6_">
			<use xlink:href="#SVGID_5_"  overflow="visible"/>
		</clipPath>
		<circle opacity="0.2" clip-path="url(#SVGID_6_)" fill="#FFFDE7" cx="469.914" cy="71.882" r="43.79"/>
		
			<circle clip-path="url(#SVGID_6_)" fill-rule="evenodd" clip-rule="evenodd" fill="#FFF176" cx="469.677" cy="71.563" r="24.467"/>
	</g>
	<path clip-path="url(#SVGID_2_)" fill="#455A64" d="M0,4.438c0.243,0.709,1.404,4.1,1.406,4.231C1.409,8.816,1.426,5.63,1.398,5.46
		C1.37,5.288,1.871,6.75,1.9,6.971c0.03,0.221-0.615-5.039-0.615-5.039s1.734,3.377,1.736,3.45c0.001,0.074,4.443,9.456,4.496,9.529
		c0.051,0.073-2.652-1.473-2.652-1.473l0.332,1.733l-1.776-1.486c0,0,0.484,1.902,0.486,2.001c0.002,0.097-1.503-3.014-1.554-3.111
		c-0.053-0.098,0.434,3.252,0.436,3.407c0.003,0.155-1.816-3.702-1.868-3.799c-0.053-0.097-0.083,3.702-0.106,3.833
		C0.794,16.13,0.177,7.455,0,4.966V4.438z"/>
	<path clip-path="url(#SVGID_2_)" fill="#66215F" d="M14.038,56.425c0.075,0.072,1.058,2.27,1.021,2.215
		c-0.039-0.054-2.642-0.753-2.642-0.753s2.684,2.059,2.479,2.008c-0.204-0.051-2.452-0.501-2.452-0.501s1.673,4.545,1.597,4.418
		c-0.076-0.124-2.133-2.303-2.095-2.195c0.04,0.108,1.361,3.461,1.116,3.229c-0.246-0.23-1.633-2.221-1.423-1.845
		c0.21,0.379,2.662,5.979,2.662,5.979s-0.233-4.715-0.118-4.517c0.114,0.198,4.319,3.518,4.319,3.518l-2.127-4.081
		c0,0,2.071,1.959,1.995,1.87c-0.076-0.091-4.23-4.682-4.23-4.682s3.893,2.383,3.816,2.274c-0.076-0.106-2.585-2.768-2.585-2.768
		s2.071,0.943,2.033,0.89c-0.037-0.054-1.882-1.764-1.79-1.747c0.093,0.016,4.585,2.843,4.547,2.753
		c-0.04-0.091-5.16-5.918-5.084-5.866c0.075,0.054,0.926,2.055,0.812,1.928C15.776,58.428,14.038,56.425,14.038,56.425z"/>
	<path clip-path="url(#SVGID_2_)" fill="#66215F" d="M18.784,58.992c0.075,0.071,2.248,4.022,2.209,3.95
		c-0.037-0.072-0.427-1.622-0.294-1.425c0.132,0.198,1.996,1.928,1.919,1.783c-0.076-0.146-1.354-2.238-1.205-2.163
		c0.149,0.075,2.16,1.729,2.16,1.729l-3.831-5.07l0.204,1.03c0,0-0.508-0.535-0.472-0.462c0.04,0.071,0.587,1.694,0.549,1.642
		C19.985,59.951,18.784,58.992,18.784,58.992z"/>
	<path clip-path="url(#SVGID_2_)" fill="#455A64" d="M15.921,52.091c-0.11,0.074-0.679,0.374-0.622,0.446
		c0.059,0.072,0.349,4.133,0.386,4.004c0.036-0.128,0.804-2.735,0.827-2.428c0.025,0.31,0.542,3.33,0.595,3.147
		c0.052-0.182-0.078-3.266,0.079-2.814c0.156,0.451,1.458,3.84,1.417,3.715c-0.039-0.127,0.092-2.089,0.224-2.019
		c0.13,0.07,1.727,1.367,1.65,1.223c-0.077-0.144-1.905-3.088-1.643-2.838c0.264,0.248,2.278,1.386,2.278,1.386l-1.1-1.733
		c0,0,1.134,0.973,1.145,0.88c0.009-0.093-2.056-3.098-2.036-3.024c0.021,0.072-0.045,1.579-0.102,1.509
		c-0.058-0.071-1.3-1.267-1.242-1.195c0.057,0.071,0.229,1.467,0.191,1.394c-0.039-0.07-0.648-1.076-0.648-1.076
		s-0.166,1.11-0.186,1.001c-0.021-0.108-0.497-0.809-0.531-0.735c-0.037,0.073-0.378,0.661-0.361,0.588
		C16.26,53.446,15.921,52.091,15.921,52.091z"/>
	<g clip-path="url(#SVGID_2_)">
		<path fill="#263238" d="M53.049,76.479c-1.693-2.055-13.646-21.293-13.646-21.293c0.927,1.221,7.404,6.972,7.404,6.972
			c-0.729-1.144-3.542-6.611-3.542-6.611c0.6,0.567,6.927,4.585,6.927,4.585l-4.151-5.486c0.928,1.257,5.805,5.458,5.805,5.458
			l0.892-0.79c-2.791-2.251-11.675-14.573-11.675-14.573l2.418,1.038l-1.321-3.564l3.654,2.059L43.35,40.53l2.875,2.382
			c-1.171-1.715-6.614-10.995-6.614-10.995l2.348,1.424l-0.503-1.727l1.866,0.893c-0.889-1.26-3.057-5.852-3.057-5.852l3.34,3.377
			c-1.772-1.987-5.1-9.211-5.1-9.211l2.835,2.343l-4.624-5.591c0.802,0.873,4.827,3.695,4.827,3.695
			c-2.721-2.613-9.539-16.272-9.539-16.272c-0.288,1.548-2.865,6.998-2.865,6.998c-1.085-1.116-4.327-6.485-4.327-6.485
			c1.005,1.18,3.67,2.83,3.67,2.83C27.348,6.548,21.73-4.004,21.73-4.004c0.693,1.298,5.601,5.147,5.601,5.147
			c-1.316-1.373-4.282-6.312-5.19-7.848c1.185,1.781,4.177,4.084,4.177,4.084c-1.442-1.52-8.007-18.573-8.007-18.573
			c-0.229,2.625-5.361,14.676-5.361,14.676c-1.487-1.593-5.269-8.396-5.269-8.396c0.809,1.104,4.742,2.787,4.742,2.787
			C11.178-13.986,0.248-38.813,0.248-38.813C0.221-38.604,0.136-38.304,0-37.938V79.167h49.911l-4.515-8.147
			c0.609,1.183,4.851,5.124,4.851,5.124l-7.255-12.037C45.439,67.906,53.049,76.479,53.049,76.479z M12.116,8.24
			c0.234-0.16,2.014-1.773,2.014-1.773s-1.53,2.456-1.603,2.574C12.451,9.158,11.897,8.386,12.116,8.24z M10.228,3.949
			c0.585-0.28,2.401-2.164,2.401-2.164c-0.225,0.659-1.827,3.312-1.827,3.312L10.228,3.949z M12.307-2.992
			c-0.079,0.117-0.959,1.288-0.942,1.136c0.015-0.155-1.015-2.646-1.015-2.646C10.549-4.391,12.382-3.111,12.307-2.992z
			 M14.946-4.931c-0.476,2.017-2.393,4.673-2.393,4.673l-0.611-1.07C12.449-1.569,14.99-5.119,14.946-4.931z M25.359,11.674
			l2.445,2.58L26.847,15.7L25.359,11.674z M28.716,12.463l-0.34,0.857c0,0-1.94-2.938-2.099-3.051L28.716,12.463z"/>
		<path fill="#455A64" d="M0-5.581c0.493-2.195,1.058-4.644,1.143-4.688c0.155-0.08-0.242,12.736-0.239,12.932
			C0.908,2.855,0.206-1.105,0.16-1.53C0.15-1.621,0.089-1.384,0-0.971V-5.581z"/>
		<path fill="#455A64" d="M3.297-4.667c0.082,0.23,0.679,7.085,0.75,6.78c0.076-0.312,0.5-2.867,0.588-2.406
			c0.086,0.463,2.045,6.449,2.02,6.255C6.635,5.771,6.496,0.26,6.559,0.623c0.066,0.363,1.925,5.154,1.875,4.613
			C8.385,4.697,7.8-3.779,7.8-3.779S9.656-1.072,9.574-1.34C9.491-1.611,8.656-6.381,8.656-6.381s2.424,1.309,2.259,0.926
			c-0.163-0.382-1.72-3.751-1.72-3.751s3.367,3.412,3.282,3.107c-0.083-0.312-3.139-6.082-3.139-5.965
			C9.342-11.949,8.86-10.36,8.86-10.36l-0.891-1.451c0,0,0.103,1.506,0.064,1.35c-0.044-0.152-1.157-0.846-1.157-0.846
			s0.135,5.341,0.015,5.15C6.769-6.348,4.522-8.74,4.522-8.625c0.003,0.116,0.743,6.2,0.622,5.971
			C5.021-2.883,3.297-4.667,3.297-4.667z"/>
		<path fill="#455A64" d="M2.691,7.537C2.774,7.65,1.778,19.475,1.985,19.203c0.205-0.274,1.365-3.573,1.377-2.997
			c0.009,0.58,0.747,6.558,0.781,6.299c0.037-0.255,1.593-5.375,1.689-4.567c0.092,0.809,3.221,8.435,3.221,8.435
			s0.221-7.375,0.345-7.029c0.124,0.346,3.093,5.772,3.093,5.772s-2.054-6.947-1.933-6.873c0.117,0.076,5.499,6.157,5.536,5.925
			c0.035-0.234-1.99-7.762-1.99-7.762s2.587,3.776,2.463,3.468c-0.123-0.306-4.679-8.483-4.679-8.483s2.505,1.385,2.38,1.001
			s-4.35-7.753-4.35-7.753s1.322,7.806,1.078,7.383c-0.242-0.419-2.817-3.577-2.851-3.228C8.11,9.14,8.68,14.455,8.595,14.224
			C8.514,13.995,5.836,9.564,5.879,9.72c0.039,0.155,0.087,7.021,0.087,7.021L2.691,7.537z"/>
		<path fill="#455A64" d="M12.926,41.327c0.032,0.111,0.123,3.569,0.059,3.258c-0.064-0.313-2.388-3.133-2.298-3.076
			c0.087,0.059,0.646,5.077,0.669,4.845c0.024-0.226-1.169-1.892-1.051-1.694c0.12,0.197,0.771,2.328,0.71,2.188
			s-1.38-2.205-1.292-2.119c0.089,0.083,0.559,3.479,0.53,3.39c-0.032-0.086-1.89-2.937-1.798-2.712
			c0.092,0.229,1.055,5.24,1.023,5.096c-0.031-0.139-2.113-4.02-2.113-4.02s0.382,3.339,0.35,3.195
			c-0.031-0.142-2.38-4.418-2.319-4.301c0.057,0.111,0.392,4.02,0.389,3.875c-0.003-0.142-2.061-2.852-2.03-2.734
			c0.029,0.113-0.801,6.984-0.737,7.082c0.062,0.103,1.348,2.055,1.348,2.055s0.081-3.119,0.083-2.891
			c0.003,0.229,0.193,2.567,0.19,2.453c-0.002-0.113,0.501-1.294,0.473-1.206c-0.028,0.084,0.026,2.766,0.026,2.766l1.69,2.303
			l0.375-3.817l0.685,2.444c0,0-0.124-3.628-0.094-3.544c0.032,0.086,3.154,8.375,3.154,8.375s-1.315-9.862-1.192-9.495
			c0.124,0.37,2.345,8.904,2.345,8.904s0.045-7.631,0.312-7.235c0.267,0.395,5.949,11.697,5.944,11.497
			c-0.004-0.199-3.678-11.679-3.532-11.625c0.146,0.056,5.391,6.509,5.301,6.337c-0.09-0.17-4.862-11.089-4.862-11.089
			s5,2.628,4.913,2.517c-0.091-0.114-4.331-5.754-4.245-5.784c0.087-0.03,4.431,1.694,4.313,1.524
			C20.125,47.92,12.926,41.327,12.926,41.327z"/>
		<path fill="#455A64" d="M24.781,39.522c-0.077,0.543-0.241,5.945-0.216,5.805c0.029-0.145-0.645-3.591-0.699-3.305
			c-0.053,0.287-0.674,2.928-0.651,2.64c0.023-0.286-0.056-4.627-0.081-4.513c-0.027,0.113,0.448,0.65,0.448,0.65
			s-0.606-2.734-0.486-2.621C23.214,38.29,24.781,39.522,24.781,39.522z"/>
		<path fill="#455A64" d="M26.593,39.717c0.062,0.259-0.361,5.843-0.279,5.582c0.083-0.261,0.473-2.87,0.654-2.614
			c0.179,0.253,2.535,3.27,2.504,3.155c-0.033-0.114-0.792-3.501-0.524-3.19c0.268,0.309,2.001,2.754,1.922,2.408
			c-0.079-0.354-1.684-3.67-1.445-3.402c0.237,0.268,1.985,1.865,1.985,1.865l-1.572-3.229c0,0,1.736,0.999,1.528,0.714
			c-0.211-0.279-1.985-3.419-1.985-3.419s-0.325,1.432-0.385,1.317c-0.061-0.113-1.098-1.045-0.978-0.813
			c0.122,0.229,0.74,3.361,0.792,3.218c0.051-0.144-1.394-2.719-1.332-2.577c0.06,0.14,0.191,2.596,0.133,2.568
			C27.553,41.274,26.593,39.717,26.593,39.717z"/>
		<path fill="#455A64" d="M20.305,13.861c0.125,0.269,1.399,11.937,1.393,11.554c-0.008-0.386,0.931-4.994,1.101-4.151
			c0.174,0.85,2.041,6.065,2.041,6.065s-0.394-4.357-0.066-3.629c0.329,0.727,3.792,5.187,3.75,5.091
			c-0.041-0.098-2.307-7.871-2.141-7.497c0.164,0.37,3.241,3.057,3.039,2.789c-0.201-0.268-4.476-10.426-4.476-10.426
			s1.784,5.148,1.661,4.804c-0.125-0.347-3.423-6.554-3.423-6.554s0.531,5.561,0.49,5.371c-0.045-0.194-2.736-4.469-2.625-4.24
			c0.113,0.23,1.756,6.338,1.63,5.799C22.55,18.299,20.305,13.861,20.305,13.861z"/>
		<path fill="#455A64" d="M19.137,12.262c0,0-1.953-1.51-1.875-1.394c0.079,0.112,1.727,9.73,1.708,9.229
			c-0.014-0.501-0.414-6.054-0.096-5.322c0.321,0.726,1.253,6.689,1.208,6.345C20.036,20.775,19.137,12.262,19.137,12.262z"/>
		<path fill="#455A64" d="M32.108,13.425c-0.043,0.182,0.164,8.987,0.164,8.987s1.546-3.267,1.563-2.38
			c0.016,0.886,0.477,4.581,0.513,4.467c0.039-0.116,0.247-5.985,0.62-4.834c0.374,1.15,2.841,4.694,2.797,4.544
			c-0.042-0.154-1.564-6.146-1.325-5.842c0.241,0.3,2.051,2.499,2.05,2.448c-0.001-0.055-2.047-4.533-1.927-4.419
			c0.118,0.113,2.749,1.958,2.629,1.883c-0.118-0.075-6.328-10.616-6.049-10.274c0.283,0.345,1.795,7.648,1.671,7.38
			c-0.125-0.269-1.268-2.524-1.221-2.256c0.042,0.27,0.117,4.359,0.076,4.168C33.621,17.104,32.108,13.425,32.108,13.425z"/>
		<path fill="#455A64" d="M13.778,20.423c0.087,0.256-0.226,7.176-0.169,7.034c0.056-0.146,0.907-3.104,1.06-2.679
			c0.152,0.43,1.381,3.95,1.381,3.95s-0.42-5.556-0.089-4.909c0.333,0.647,2.348,3.784,2.327,3.698
			c-0.019-0.086-1.018-3.803-0.929-3.725c0.089,0.082,3.214,2.057,3.212,1.915c-0.003-0.143-4.069-7.15-4.121-7.085
			c-0.054,0.064,0.352,3.289,0.26,3.092c-0.093-0.196-1.058-2.181-1.058-2.181s0.049,3.767,0.061,3.542
			c0.011-0.227-0.979-2.697-0.861-2.557c0.12,0.14,0.056,3.026,0.056,3.026L13.778,20.423z"/>
		<path fill="#455A64" d="M18.97-14.359c-0.109,0.426-2.631,11.193-2.403,10.688c0.226-0.502,2.753-6.449,2.495-5.597
			c-0.26,0.852-0.196,8.802-0.2,8.606c-0.002-0.191,0.883-7.964,0.976-7.038c0.091,0.926,2.209,5.536,2.123,5.417
			c-0.085-0.124-0.989-5.901-0.747-5.519c0.243,0.383,2.117,3.88,2.159,3.832c0.039-0.049-2.111-5.877-1.696-5.614
			c0.415,0.263,2.919,3.961,2.878,3.808c-0.043-0.152-4.104-10.384-4.028-10.154c0.071,0.23,0.057,6.789-0.06,6.405
			C20.35-9.907,19.55-14.93,19.51-14.94c-0.039-0.006-0.378,5.168-0.387,4.706C19.115-10.697,18.97-14.359,18.97-14.359z"/>
		<g>
			<path fill-rule="evenodd" clip-rule="evenodd" fill="#37474F" d="M6.828,27.283c0.073,0,0.146,0,0.222,0
				c0.233,3.806,1.024,7.05,1.32,10.788c0.883-1.242,1.445-2.811,2.206-4.18c1.686,3.672,2.781,7.936,3.964,12.113
				c1.153-2.514,2.191-5.146,3.083-7.934c0.794,0.094,0.671,1.096,1.103,1.546c0.916-0.846,1.275-2.247,1.981-3.304
				c0.692-0.105,0.861,0.313,1.325,0.441c0.285-1.767,0.541-3.567,1.759-4.406c1.027,0.662,1.05,2.33,2.204,2.863
				c0.637-0.098-0.197-1.664,0.441-1.76c1.592,0.244,1.642,2.029,2.201,3.303c2.178,0.051,2.71,2.99,3.525,5.067
				c1.65-2.463,2.856-5.368,4.406-7.931c1.344,1.373,2.444,2.988,3.526,4.627c1.663-1.346,2.991-3.031,4.844-4.188
				c1.681,1.038,2.858,2.579,3.966,4.188c0.37-0.293,0.739-0.584,1.541-0.447c0.326,1.881,1.686,2.727,2.424,4.19
				c0.374-1.122,2.426-1.118,3.084-0.222c0.934-2.439,3.402-3.353,5.287-4.844c0.633,0.979,2.421,0.809,2.642,2.2
				c0.637-0.974,1.378-1.853,2.423-2.421c1.506,0.184,1.35,2.027,2.867,2.202c0.616-0.849,0.762-2.173,1.319-3.081
				c0.486,1.641,1.028,3.225,1.763,4.622c0.855-1.05,0.547-3.268,1.982-3.743c0.347,0.462,0.152,1.461,0.44,1.981
				c1.473-2.047,2.65-4.396,4.407-6.167c0.694,0.551,0.99,1.504,1.322,2.422c1.898,0.08,2.572,1.391,3.08,2.859
				c0.059,0.723-0.684,0.643-0.881,1.106c0.289,1.104,0.911,1.88,1.323,2.862c1.153-0.826,1.59-2.371,2.864-3.083
				c0.321,1.15,1.196,1.743,1.542,2.865c0.681-0.718,1.2-1.592,1.763-2.426c1.136,6.28,9.373,5.46,9.913,12.337
				c1.085-0.235,1.324-1.32,1.981-1.982c0.969-0.163,0.904,0.716,1.542,0.881c0.764-0.409,1.042-1.309,1.76-1.762
				c0.605-0.246,1.417-0.137,1.983,0.223c0.907-1.668,1.447-3.699,1.981-5.73c1.228,0.832,1.096,3.02,1.763,4.404
				c0.283,0.477,0.72-0.732,1.541-0.438c0.348,0.18,1.975,2.905,2.646,2.861c0.718-0.042,0.698-1.388,1.102-1.764
				c0.347-0.316,0.564,0.477,1.099,0.223c0.696-0.325,0.512-2.271,1.323-1.762c0.986-0.182,1.223,0.391,1.324,1.102
				c1.265-1.819,2.165-3.999,3.081-6.167c0.814,2.269,1.653,4.515,2.863,6.388c3.141-0.334,0.984-5.205,3.528-5.728
				c0.087,1.603,0.487,3.806,1.099,5.507c0.092,0.495,1.17,0.002,1.321,0.438c0.554,2.684,2.078,4.387,2.646,7.052
				c0.814-0.357,0.683-1.666,1.099-2.424c2.912,0.688,2.55,4.647,5.729,5.068c0.368,0.876,0.893,1.604,1.323,2.422
				c1.408-1.971,3.095-3.66,4.184-5.949c1.571,1.294,1.161,4.568,3.747,4.848c0.358,1.105,1.35,1.585,1.542,2.862
				c0.807-0.511,1.38-1.259,1.76-2.2c0.777,1.722,1.747,3.241,2.865,4.626c1.648-0.19,2.294-1.378,3.302-2.202
				c0.951,1.105,1.586,2.525,1.982,4.183c0.529,0.532,0.583-0.535,1.545-0.219c0.279,0.748,0.78,1.273,1.099,1.978
				c0.93-1.122,1.065-3.047,1.543-4.622c1.488,1.597,3.055,3.111,3.743,5.508c0.638-2.449,0.81-5.356,0.881-8.375
				c2.099-0.404,2.102,1.28,2.646,2.428c0.355-2.658,2.089-3.932,2.643-6.388c1.366,1.351,1.614,3.815,2.643,5.508
				c0.206,0.139,1.112-0.026,1.764,0.221c0.574,1.478,1.373,2.734,1.76,4.4c2.195-1.912,3.481-4.737,5.288-7.045
				c4.079,5.684,6.72,12.811,11.454,17.842c0.789-0.828,1.361-1.869,1.763-3.086c1.073,1.647,1.226,4.203,1.982,6.169
				c0.96-0.729,0.918-2.456,2.203-2.862c0.334,1.719,1.173,2.937,1.541,4.624c1.499-0.114,1.587-1.646,3.085-1.762
				c1.134,3.711,4.361,5.328,7.929,6.611c0,0.069,0,0.144,0,0.216c-62.36,0-127.042,0-190.538,0c-4.375,0-9.177-0.699-12.555,0
				c-0.908,0.193-0.769,0.256-1.542,0.883c-0.075,0-0.147,0-0.223,0C5.956,76.102,2.005,60.596,0,43.145c0-2.939,0-5.876,0-8.813
				c1.674,1.635,2.211,4.398,3.747,6.169C4.589,35.911,5.701,31.589,6.828,27.283z"/>
			<path fill-rule="evenodd" clip-rule="evenodd" fill="#37474F" d="M217.631,87.857c0,0.148,0,0.298,0,0.441
				c-67.298,1.025-136.489,0.146-204.634,0.441c0.773-0.627,0.634-0.689,1.542-0.883c3.378-0.699,8.18,0,12.555,0
				C90.589,87.857,155.271,87.857,217.631,87.857z"/>
		</g>
	</g>
	<g clip-path="url(#SVGID_2_)">
		<path fill="#00796B" d="M940,35.563c-14.615,1.453-30.799,3.214-39.96,4.703c-19.548,3.177-33.773,3.518-39.106,4.425
			c-5.328,0.908-20.445,2.95-31.109,5.56c-10.668,2.608-29.332,9.076-46.223,11.118c-16.888,2.043-92.439,9.418-118.203,11.346
			c-25.781,1.929-82.666,6.013-98.661,6.127c-2.756,0.02-5.831,0.029-9.05,0.029c-15.484,0-34.383-0.221-38.057-0.596
			c-4.442-0.453-24.002-1.362-34.663-1.589c-10.666-0.227-144.879-3.857-188.437-5.334c-43.548-1.473-106.653-3.401-111.091-4.424
			c-4.449-1.021-10.667-1.929-22.229-2.496c-11.552-0.568-119.998-5.333-130.657-6.013C25.567,57.973,11.72,56.261,0,54.465v34.134
			h940V35.563z"/>
	</g>
	<g clip-path="url(#SVGID_2_)">
		<path fill-rule="evenodd" clip-rule="evenodd" fill="#37474F" d="M940-13.336c-1.5,2.529-12.493,21.074-12.763,21.703
			l-2.091-3.693c0,0-0.99,4.121-1.802,5.682c0,0-2.792-3.302-3.139-3.159c-0.349,0.142-2.678,4.971-2.849,4.793
			c-0.177-0.18-1.048-1.527-1.221-1.173c-0.174,0.355-1.745,3.267-2.095,3.55c-0.348,0.286-0.753-0.923-0.987-0.637
			c-0.231,0.282-2.211,4.969-2.383,5.146l-1.219-1.703c0,0-0.876,3.337-1.107,3.763c-0.233,0.427-1.858-2.414-1.858-2.414
			l-0.989,3.871c0,0-0.582-0.498-0.815-0.958c-0.232-0.462-0.639,1.278-0.639,1.278l-1.512-2.593l-2.498,4.474l-1.628,0.996
			l-1.511-1.917l-2.675,4.402l-1.046,0.035l-2.266-3.231l-2.269,4.51l-1.046-0.32l-1.456,1.349l-1.105-1.029l-1.452,0.922
			c0,0-1.336-2.236-1.452-2.095c-0.116,0.143-1.048,1.528-1.048,1.528l-0.579-0.711l-1.279,0.605l-1.512-1.315l-0.873,1.101
			l-1.976-3.267l-0.87,1.172c-0.232-0.177-1.979,3.516-1.979,3.516l-1.161-0.602l-1.396,0.886l-1.336-2.45l-1.453,0.71l-3.66-1.455
			l-0.873,1.207l-0.523-0.036l-3.021,3.303l-0.933-1.173l-2.902,3.623l-1.339-0.533l-1.105,0.357l-1.104-1.669l-1.339,1.313
			l-2.096-0.142l-4.007,4.12l-1.512-0.499c0,0-4.185,4.511-4.419,4.582c-0.233,0.072-2.675-0.852-2.675-0.852l-1.394,1.457
			l-1.163-0.07l-4.825,4.97l-1.509-0.996l-1.921,2.346l-2.675,1.17l-1.334-1.027l-1.28,1.17l-0.641-0.354l-0.927,0.779l-0.814-1.275
			c0,0-3.139,2.342-3.314,2.199c-0.175-0.143-1.918-0.568-1.918-0.568l-1.281,1.705c0,0-0.812-0.604-1.044-0.498
			c-0.233,0.107-4.712,4.758-4.712,4.758s-0.929,0.107-0.986,0.248c-0.059,0.145-1.336,1.74-1.336,1.74l-1.397,0.568l-0.928-0.994
			l-1.802,1.633l-1.976-0.744c0,0-2.386,1.205-2.62,1.242c-0.229,0.035-1.394-0.354-1.394-0.354l-1.976,1.633l-5.173,1.809
			l-6.159,0.818c0,0-4.534,1.385-7.096,2.662c-2.559,1.279-5.695,2.451-6.801,2.877c-1.104,0.426-5.813,1.633-9.473,2.166
			c-3.664,0.533-15.64,1.754-17.558,2.855c0,0,17.536,4.785,20.909,4.646c3.369-0.143,11.435,1.727,14.34,1.762
			c2.909,0.035,14.627-6.637,12.651-6.459c-1.978,0.178-2.734,0.25-2.036,0.426c0.699,0.176,3.778,2.344,17.209,1.6
			c13.428-0.748,20.345-0.393,23.6-0.32c3.256,0.07,11.568,0.283,20.693,1.74c9.128,1.455,10.695,2.627,21.742,2.768
			c11.044,0.143,18.832,0,22.146,0.072c3.314,0.07,11.103-0.105,15.232-0.105c4.125,0,6.219,0.461,10.982,0.318
			c4.636-0.139,22.377,1.957,24.797,1.453V-13.336z"/>
		<path fill-rule="evenodd" clip-rule="evenodd" fill="#455A64" d="M901.083,29.419c0,0-1.17,4.984-1.768,6.258l-2.94-7.596
			l-0.376,9.068l-2.064-4.209l-0.517,3.458l-1.453-3.403l-0.503,2.829l-4.581-10.949l-1.284,16.109l-2.175-5.927l-0.512,2.747
			l-2.46-7.923l-1.872,10.635l-2.525-7.806l-0.808,11.309l-5.534-10.62l-1.273,7.657l-2.727-5.67l-1.009,9.276
			c0,0-2.934-6.06-2.998-5.916c-0.067,0.144-1.091,3.716-1.091,3.716l-2.52-6.763l-0.936,11.13c0,0-3.444-6.44-3.429-6.303
			c0.016,0.135-0.824,5.577-0.824,5.577l-1.321-1.989l-0.824,8.733c0,0-2.494-6.055-2.505-5.914
			c-0.013,0.137-0.628,7.064-0.628,7.064l-1.504-4.082l-0.552,3.848c0,0-2.099-4.975-2.08-4.813s-1.036,5.877-1.036,5.877
			l-1.626-2.504l-0.169,2.158l-0.566-0.648l-0.344,4.508l-0.713-1.48l-0.622,2.018l-0.533-1.066l-0.199,1.395l-0.899-2.367
			l-0.583,4.043l-0.88-1.217l-0.26,2.307l-1.299-1.773l-0.304,2.172l-0.634-0.775l-0.374,1.551c0,0-0.404-3.082-0.417-2.969
			c-0.019,0.109-0.547,3.188-0.547,3.188l-1.512-3.203l-0.34,2.588l-0.689-1.732l-0.809,3.768l-1.247-3.041l-0.729,2.303
			l-0.551-0.76l-0.178,2.078c0,0-0.783-1.834-0.77-1.723c0.013,0.107-0.227,1.889-0.227,1.889s-0.868-2.344-0.906-2.201
			c-0.04,0.143-0.077,2.23-0.077,2.23l-0.718-2.223l-1.055,2.807c0,0-0.424-1.57-0.494-1.451c-0.067,0.115-0.438,1.939-0.438,1.939
			l-0.763-1.42l-0.539,1.543l-0.498-0.521l-0.517,1.264l-0.704-0.906l-0.34,0.889l-0.212-0.414l-0.132,0.535l-0.58-0.537
			l-0.541,1.541c0,0,2.457-0.359,5.335-0.629c2.876-0.271,7.845-0.723,8.212-0.627c0.368,0.096-0.583,0.422-0.3,0.5
			c0.283,0.076,1.659,1.568,6.029,0.689c4.373-0.877,7.79-1.209,11.721-1.623c3.931-0.42,6.059-0.523,10.402,0.057
			c4.346,0.578,5.716,1.303,9.234,1.123c3.517-0.178,8.242-0.354,12.039-0.975c3.798-0.623,6.172-0.971,7.622-1
			c1.451-0.025,2.916-0.41,4.94-0.695c2.026-0.283,5.913-1.074,5.913-1.074s3.125-6.578,4.42-13.832
			C903.24,40.724,901.083,29.419,901.083,29.419z"/>
		<g>
			<path fill-rule="evenodd" clip-rule="evenodd" fill="#263238" d="M940-19.813c-3.916,4.848-10.168,8.239-10.168,8.239
				c-1.032-0.721-1.976-1.695-1.976-1.695c1.035,0.816,3.109,0.942,3.109,0.942c-1.823-1.161-7.344-6.435-7.344-6.435
				c0.784,0.505,2.476,0.943,2.476,0.943c-1.439-1.222-3.26-4.485-3.26-4.485c0.688,0.845,2.855,1.975,2.855,1.975
				c-3.483-2.95-4.957-9.225-4.957-9.225c-0.723,3.828-5.241,11.61-5.241,11.61c1.13-0.471,3.013-2.007,3.013-2.007
				c-1.789,3.513-6.996,6.963-6.996,6.963c1.505-0.375,2.258-0.877,2.258-0.877c-0.908,1.379-3.333,3.539-3.333,3.539
				c1.875-0.073,4.086-0.653,4.086-0.653l-2.007,2.448c0.657-0.127,2.728-1.726,2.728-1.726c-1.442,2.323-5.021,5.648-5.021,5.648
				c1.475,0,3.61-1.005,3.61-1.005c-1.727,2.919-3.83,5.775-3.83,5.775c1.288-0.063,4.019-1.13,4.019-1.13
				c-2.602,2.761-7.405,4.735-7.405,4.735l1.004-0.03l-1.036,1.256c1.068,0.061,3.984-1.318,3.984-1.318
				c-1.694,2.542-5.897,4.769-5.897,4.769c1.474,0.252,4.803-1.663,4.803-1.663l-2.387,1.695c2.291-0.378,5.963-2.512,5.963-2.512
				c-2.668,5.052-6.979,6.506-6.979,6.506c1.239-0.147,4.151-0.984,4.151-0.984l-1.161,1.193c1.571-0.313,5.052-2.511,5.052-2.511
				c-1.756,2.667-5.897,6.524-5.897,6.524c0.628,0,2.071-0.533,2.071-0.533l-1.567,1.537c-3.325-2.698-4.27-9.128-4.27-9.128
				c-1.346,6.838-4.797,9.599-4.797,9.599c0.814-0.031,2.099-0.532,2.099-0.532c-1.942,4.455-4.957,7.592-4.957,7.592
				c1.382-0.094,2.824-1.285,2.824-1.285c-0.754,1.725-3.045,4.831-3.045,4.831l1.915-0.534c-0.249,0.973-0.94,2.51-0.94,2.51
				l1.725-0.127c-1.223,3.231-5.051,10.575-5.051,10.575c0.535,0.032,2.104-0.688,2.104-0.688c-0.565,1.441-2.573,4.39-2.573,4.39
				l1.979-1.287c-1.385,5.053-3.894,7.03-3.894,7.03h5.774c-1.813-0.037-4.818,1.826-4.581,2.141
				c0.234,0.313,4.667,0.746,3.39,0.902c-1.271,0.156-0.995,2.117,0.609,2.314c1.608,0.195,3.726,0.275,3.098,0.432
				c-0.625,0.156-1.213,0.979,0.668,0.904c1.881-0.08,19.178-0.121,19.178-0.121l0.825,3.625c-1.726-1.744-2.472-3.313-2.472-3.313
				c0.078,0.709,1.021,2.826,1.021,2.826c-1.962-1.297-5.609-2.904-5.609-2.904c0.708,0.865,7.06,4.943,7.06,4.943
				c-7.688-4.275-13.453-3.373-13.453-3.373c4.157-0.471,11.372,4.313,11.372,4.313c-4.51-2.391-8.471-1.842-8.471-1.842
				l0.472,0.549c3.141,0.078,9.727,3.844,9.727,3.844c3.496-0.166,11.055-0.225,19.555-0.227V-19.813z M929.112-10.476
				c0,0-0.94,0.733-1.727,0.993l0.993,0.471l-0.573,0.783c0,0,2.195,0.263,4.132-0.942c0,0-1.36,1.467-1.152,1.467
				c0.21,0,2.978-0.168,4.865-1.569l-3.349,3.451c0,0,4.917-1.203,6.902-2.878L928.8,0.715l-1.046-0.368l-1.414-2.875
				c0,0,0.314-0.158,2.355,0.209l-2.146-1.673c0,0,4.34,0.628,5.335,0.575c0,0-4.393-1.621-5.387-2.668l5.23,1.464l1.516-0.417
				c0,0-5.808-1.359-7.373-5.491L929.112-10.476z M928.838,24.195l-3.607-5.844c0.313,0.313,2.001,1.726,2.077,1.882
				c0.078,0.156-0.82-2.352-0.82-2.352c0.43,0.939,3.096,4.979,3.096,4.979L928.838,24.195z"/>
			<path fill="#455A64" d="M940-13.88v-0.478c-0.664,0.164-1.326,0.32-1.219,0.263c0.06-0.029,0.536-0.439,1.219-1.055v-2.134
				l-3.36,2.04c0,0,1.773-1.806,3.36-3.395v-0.342c-0.94,0.733-1.792,1.383-1.792,1.383s0.846-0.994,1.792-2.094v-0.335
				c-3.419,3.271-9.408,8.724-12.355,10.326c0,0,2.912-0.815,4.472-1.902l0.442-0.349c-0.127,0.12-0.278,0.235-0.442,0.349
				l-3.635,2.845c0,0,6.326-3.034,8.366-4.603l-3.871,4.498C932.977-8.863,937.098-11.961,940-13.88z"/>
			<path fill="#455A64" d="M940-8.73l-2.156,3.631c0,0,0.965-1.1,2.156-2.489V-8.73z"/>
			<path fill="#455A64" d="M940-12.056c-2.221,2.479-4.445,4.774-5.653,5.507c1.029-0.537,3.947-2.081,5.653-3.214V-12.056z"/>
			<path fill-rule="evenodd" clip-rule="evenodd" fill="#455A64" d="M940,5.759V0.967l-0.955,1.098c0,0,0.458-1.368,0.955-2.876
				v-2.817l-3.988,3.184l0.73-3.397c0,0-4.131,3.659-5.02,4.287l4.185-5.697c0,0-6.936,5.868-9.534,7.506l2.629-0.345l-5.07,5.698
				l2.875-0.626l7.583-4.497c0,0-2.405,5.701-3.451,6.85l3.397-3.607l-1.619,2.824c0,0,1.727-1.831,2.56-2.039l-3.605,6.589
				C931.671,13.1,937.761,7.695,940,5.759z"/>
			<path fill-rule="evenodd" clip-rule="evenodd" fill="#455A64" d="M940,7.429c-0.404,2.089-0.974,5.213-1.006,6.454
				c0,0,0.442-0.721,1.006-1.618V7.429z"/>
			<path fill-rule="evenodd" clip-rule="evenodd" fill="#455A64" d="M919.852-7.768c-0.365-1.148-0.837-3.815-0.837-3.815
				l-0.836,1.255l0.523-1.935c0,0-2.248,2.824-2.457,3.243c-0.21,0.419,0.677-3.922,0.677-3.922
				c-1.513,1.151-5.333,2.407-5.333,2.407c0.838-0.314,2.721-2.721,2.721-2.721l-3.085,1.935c0.941-0.731,2.98-3.033,2.98-3.033
				l-2.824,1.205c1.046-0.628,6.277-5.807,6.277-5.807c-0.316,1.045-2.459,5.02-2.459,5.02c0.732-0.574,2.667-2.458,2.667-2.458
				l-0.472,1.309l1.62-1.517l-0.313,2.458c0.94-1.36,2.093-5.022,2.093-5.022C920.611-17.586,919.852-7.768,919.852-7.768z"/>
			<path fill-rule="evenodd" clip-rule="evenodd" fill="#455A64" d="M921.975-14.045c0.028-1.416,0.701-4.126,0.701-4.126
				c-0.364,2.614-0.32,10.425-0.32,10.425c-0.636-2.491-1.089-6.973-1.143-7.184C921.159-15.139,921.975-14.045,921.975-14.045z"/>
			<path fill-rule="evenodd" clip-rule="evenodd" fill="#455A64" d="M913.943-6.98c1.412-0.788,2.302-1.57,2.302-1.57l-0.21,1.57
				l1.307-1.255c-0.576,1.464-4.025,7.058-4.025,7.058c0.159-0.417,1.775-5.176,1.883-5.542c0.103-0.367-4.174,1.699-4.395,1.673
				c1.832-0.68,4.615-5.508,4.604-5.229C915.363-9.368,913.943-6.98,913.943-6.98z"/>
			<path fill-rule="evenodd" clip-rule="evenodd" fill="#455A64" d="M918.964,0.393l-0.367-6.85l0.626,2.196
				c0.104-0.524,0.996-2.929,0.996-2.929C920.065-6.655,918.964,0.393,918.964,0.393z"/>
			<path fill-rule="evenodd" clip-rule="evenodd" fill="#455A64" d="M913.943,0.393c1.046-0.576,2.195-1.622,2.195-1.622
				l-0.627,2.719l2.354-4.445c0.154,1.726-1.571,6.691-1.571,6.691c1.151-0.836,3.819-3.136,3.819-3.136
				c-0.731,1.153-4.028,7.584-4.132,7.793c-0.104,0.209,0.419-2.616,0.419-2.616c-0.733,0.417-3.811,3.262-4.028,3.296
				c0.787-1.518,2.616-5.493,2.616-5.493c-1.256,0.68-7.426,3.768-7.426,3.768c1.936-0.682,5.489-5.074,5.489-5.074l-6.222,2.301
				c0.943-0.26,3.661-2.404,3.661-2.404l-3.817,1.464c1.517-0.681,8.575-5.074,8.734-5.283
				C915.565-1.857,913.943,0.393,913.943,0.393z"/>
			<path fill-rule="evenodd" clip-rule="evenodd" fill="#455A64" d="M913.788,12.837l1.777-1.359l-2.145,4.864l3.085-4.446
				c-0.887,2.354-3.346,10.826-3.346,10.826l0.365-5.125l-2.721,2.928c0.683-1.308,2.198-6.015,2.198-6.015l-3.349,1.622
				c0.89-0.417,2.512-2.668,2.67-2.979c0.156-0.315-2.303,1.673-2.303,1.673c1.047-1.047,3.712-4.134,3.712-4.134l1.728-1.461
				C915.313,9.926,913.788,12.837,913.788,12.837z"/>
			<path fill-rule="evenodd" clip-rule="evenodd" fill="#455A64" d="M917.762,14.722l1.881-2.094
				c-0.522,1.675-2.668,8.523-2.668,8.523s0.42-3.505,0.42-3.711c0-0.211-2.145,4.183-2.145,4.183
				c0.732-2.825,3.287-13.328,3.347-13.126C918.729,8.939,917.762,14.722,917.762,14.722z"/>
			<path fill-rule="evenodd" clip-rule="evenodd" fill="#455A64" d="M921.318,13.779l-0.995-0.784l2.194,8.051
				c-0.782-3.084-0.992-11.816-0.992-12.131C921.525,8.603,921.318,13.779,921.318,13.779z"/>
			<path fill-rule="evenodd" clip-rule="evenodd" fill="#455A64" d="M907.982,20.001l2.09-1.517l-2.454,3.713l1.881-0.993
				c0,0,1.778-1.362,0.053,0.312c-1.726,1.674-8.683,8.839-8.683,8.839c0.315-1.045,3.036-5.857,3.192-6.12
				c0.156-0.26-2.982,1.047-3.192,1.047c-0.205,0,5.073-3.66,5.073-3.66c-0.782,0.469-5.361,1.448-5.361,1.448
				c2.271-1.062,8.448-5.317,8.448-5.317L907.982,20.001z"/>
			<path fill-rule="evenodd" clip-rule="evenodd" fill="#455A64" d="M908.725,28.584c0.377-0.674,1.717-1.627,1.717-1.627
				c-1.466,1.936-3.923,6.38-3.923,6.38c0.104-1.568,1.83-9.62,1.83-9.62l0.786-0.734l-0.315,3.66l1.097-3.189l1.518-1.673
				L908.725,28.584z"/>
			<path fill-rule="evenodd" clip-rule="evenodd" fill="#455A64" d="M914.153,30.461c0.469-0.891,1.568-2.981,1.568-2.981
				c-1.31,3.242-2.877,9.411-2.877,9.411c-0.576-3.765,0.052-11.294,0-11.504c-0.052-0.208,0.524,2.93,0.524,2.93
				c0.208-1.726,0.94-4.08,0.94-4.08l1.046-1.099L914.153,30.461z"/>
			<path fill-rule="evenodd" clip-rule="evenodd" fill="#455A64" d="M907.563,36.16l-1.307,2.458
				c1.882-1.307,4.602-6.064,4.602-6.064l-3.084,6.692l1.88-2.406l0.577,0.522c-1.36,1.937-6.222,11.193-6.222,11.193
				c-0.313-2.301,2.613-8,2.613-8l-6.433,2.717c2.3-1.621,7.529-10.039,7.74-10.354C908.139,32.604,907.563,36.16,907.563,36.16z"/>
			<path fill-rule="evenodd" clip-rule="evenodd" fill="#455A64" d="M930.782,32.97l-3.033,4.026l2.457-1.673
				c0,0,1.465-1.046,0,0.262c-1.464,1.307-9.308,9.465-9.308,9.465l5.126-7.321c-1.412,1.204-5.275,2.897-5.598,2.979
				c2.879-1.359,9.415-9.099,9.415-9.099L930.782,32.97z"/>
			<path fill-rule="evenodd" clip-rule="evenodd" fill="#455A64" d="M933.187,49.393c-0.26-2.354-0.416-5.701-0.416-5.701
				c-0.684,1.203-3.192,7.061-3.192,7.061c0.471-3.191,3.244-12.97,3.244-12.97s3.955-3.808,3.869-3.555
				C936.016,36.216,933.187,49.393,933.187,49.393z"/>
			<path fill-rule="evenodd" clip-rule="evenodd" fill="#455A64" d="M940,20.306v-0.698c-0.579,0.728-1.219,1.502-1.219,1.388
				c0-0.21,0.526-2.301,0.526-2.301l-1.415,0.156l-2.821,3.241l2.145-4.288l-0.42-0.05c0,0-4.394,2.874-5.125,3.503l2.929-4.811
				l-0.366-1.307c0,0-8.785,12.968-10.718,14.431c0,0,8.522-6.379,8.363-5.91c-0.156,0.472-2.613,4.55-3.346,5.44
				c0.23-0.074,6.743-4.34,8.419-5.595c0,0-2.301,7.478-2.979,10.198C933.973,33.704,937.951,24.644,940,20.306z"/>
			<path fill-rule="evenodd" clip-rule="evenodd" fill="#455A64" d="M919.395,59.768c0,0,1.673,1.674,3.318,2.98
				c0,0-1.805-5.813-1.906-8.109c0,0,2.222,5.363,3.346,7.742c0,0,2.171-5.725,3.476-6.98c0,0-1.932,5.467-2.039,7.504l1.858-2.926
				c0,0-0.602,2.301-0.314,3.842c0,0,1.958-5.072,1.726-8.131c0,0,0.392,5.516-0.104,7.059c0,0,3.137-3.504,4.917-4.443
				c0,0-2.328,1.83-3.009,3.791l2.643-0.656c0,0-1.466,1.936-1.701,3.402l-0.338-1.598c0,0-2.016,1.205-2.355,1.883l0.367-1.883
				c0,0-1.491,1.857-1.412,1.883c0.08,0.029,0.34-1.646,0.368-2.432c0,0-1.152,2.773-1.128,2.695
				c0.027-0.078-0.548-1.492-0.572-2.146l-0.734,2.146c0,0-1.098-1.857-0.967-2.746l-0.419,2.039c0,0-0.968-2.51-1.517-3.529
				l0.366,3.111C923.263,64.266,919.68,60.719,919.395,59.768z"/>
		</g>
	</g>
	<g clip-path="url(#SVGID_2_)">
		<path fill="#00695C" d="M940,40.186c-5.59,4.07-10.87,8.545-21.231,8.545c-0.163,0-0.333,0-0.507-0.003
			c-11.556-0.162-48.886-1.13-48.886-1.13l-27.55,3.713c0,0-40.001,10.816-59.549,15.337c-19.555,4.521-21.338,5.327-41.77,6.619
			c-20.45,1.293-75.557,4.845-95.111,6.296c-19.554,1.455-63.104,5.652-75.551,6.136c-11.33,0.44-72.007,1.819-107.608,1.819
			c-3.506,0-6.764-0.013-9.716-0.042c-32.893-0.323-141.325-3.716-185.754-5.975c-44.455-2.259-86.225-5.813-91.557-6.78
			c-5.334-0.969-15.112-2.098-15.112-2.098s-107.542-6.137-115.548-6.46c-7.998-0.322-37.33-1.937-37.33-1.937S4.378,63.22,0,61.68
			V97h940V40.186z"/>
	</g>
	<g clip-path="url(#SVGID_2_)">
		<path fill="#004D40" d="M940,60.411c-3.737,2.059-7.228,3.606-9.357,3.828c-6.229,0.646-8.894-4.682-13.345-5.489
			c-4.439-0.808-15.991-1.131-15.991-1.131l-17.775,4.116l-2.665,3.795c0,0-7.998,3.067-12.447,3.714
			c-4.439,0.646-11.547-2.261-11.547-2.261l-32.008,4.359c0,0-13.331,5.812-15.108,6.297c-1.774,0.485-27.544,1.937-55.992,3.551
			c-28.441,1.616-68.44,3.392-68.44,3.392l-12.441-5.489l-19.555,1.29l-15.995,4.683l-22.223,0.807c0,0-36.441,0.808-56.002,1.13
			c-19.539,0.324-56.877,0.163-64.877-0.322c-7.998-0.485-31.112-3.551-39.999-4.521c-8.889-0.969-27.559,3.875-27.559,3.875
			s-41.778,0.322-55.987,0.808c-14.226,0.484-39.104,0.16-59.555-0.323c-20.434-0.484-93.332-4.036-93.332-4.036
			s-16.886-4.357-20.438-5.005c-3.558-0.646-31.993,5.651-31.993,5.651l-32,2.261l-20.442-2.583c0,0-10.669-1.616-15.114-3.07
			c-4.441-1.451-18.662-6.94-18.662-6.94s-7.997,0.969-9.776,1.775c-1.777,0.807-5.337,0.163-17.782-2.422
			C43.856,70.545,18.259,66.318,0,63.35v33.299L940,97V60.411z"/>
	</g>
	<path clip-path="url(#SVGID_2_)" fill-rule="evenodd" clip-rule="evenodd" fill="#26A69A" d="M481.377,86.571
		c-3.855-0.239-0.188,0.66,1.833,0.898c2.024,0.241,2.214,0.841,3.099,1.2c0.886,0.358-17.323,0.719-20.23,1.018
		c-2.909,0.301,8.218,1.08,11.254,1.259c3.035,0.182-3.541,0.84-5.881,1.021c-2.337,0.178,9.229,0.237,11.57,0.237
		c2.339,0-8.851,1.318-11.064,1.557c-2.212,0.241,7.019,0.899,9.989,1.14c2.972,0.238-9.041,0.12-11.695,0.12
		c-2.551,0,5.862,1.326,9.723,1.802h-21.986c-2.719-0.406-6.023-0.867-7.588-0.963c-2.907-0.179,11.38-0.239,14.542-0.299
		c3.16-0.06-9.104-1.138-11.189-1.559c-2.087-0.42,11.758-0.84,13.971-0.898c2.212-0.06-5.311-0.48-7.27-0.661
		c-1.96-0.178,8.408-0.837,11.823-1.257c3.413-0.419-13.34,0-14.057,0c-0.718,0-3.267-0.6-5.731-1.139
		c-2.466-0.541,1.265-0.6,2.972-0.778c1.706-0.182-3.034-0.898-5.69-1.499c-2.656-0.599,14.159-0.18,19.218-0.359
		s-0.443-1.02-4.488-1.319c-4.046-0.299-16.06-0.18-18.335-0.479c-2.273-0.298,1.266-0.298,2.594-0.359
		c1.327-0.061,0.948-0.958-1.138-1.318c-2.086-0.359,4.741-0.299,6.954-0.539c2.213-0.239,0,0,1.326-0.358
		c1.328-0.359,9.674-0.48,11.473-0.659c1.8-0.182-11.535-0.182-12.925-0.241c-1.392-0.06-0.76-0.421,0.252-0.539
		c1.011-0.12-5.88-0.239-8.473-0.359c-2.59-0.12,7.903-0.54,10.368-0.599c2.466-0.061-4.741-0.359-2.591-0.599
		c2.149-0.242,10.938-1.561,12.959-1.679c2.024-0.119-4.605-0.934-4.362-1.02c0.506-0.18,12.898,0.42,17.767,0.779
		c4.867,0.358-8.41,1.139-11.508,1.439c-3.098,0.298,4.173,0.538,7.46,0.777c3.287,0.24,11.001,0.661,14.288,1.199
		c3.287,0.539-19.093,1.557-21.116,1.977c-2.022,0.42,19.345,1.678,22.127,1.8c2.781,0.118-1.833,0.418-3.857,0.358
		c-2.023-0.061,5.88,1.258,6.766,1.499C495.412,87.411,485.234,86.812,481.377,86.571z"/>
</g>
</svg>
